<svg width="256" height="256" viewBox="0 0 256 256" fill="none" xmlns="http://www.w3.org/2000/svg">
<path d="M234.666 234.667H21.333V213.333H234.666V234.667ZM234.666 64H21.333V32H234.666V64ZM213.333 74.6667V202.667H181.333V117.333C181.333 117.333 154.666 106.667 128 106.667C101.333 106.667 74.6663 117.333 74.6663 117.333V202.667H42.6663V74.6667H213.333ZM154.666 156.48H154.346L157.973 162.347L158.613 163.627C163.093 174.4 160 186.667 151.573 194.56C144 201.6 133.333 203.413 123.52 202.133C114.24 200.96 105.6 195.093 100.8 186.987C99.1997 184.533 98.0263 181.653 97.3863 178.88L95.9997 171.84C95.573 161.6 99.6264 150.827 107.306 144.427C103.786 152.107 104.64 161.707 109.866 168.427L110.506 169.28C111.36 170.027 112.533 170.347 113.493 169.813C114.453 169.493 115.2 168.533 115.2 167.467L114.773 165.973C109.12 151.147 113.92 133.867 125.76 124.053C129.066 121.387 133.333 118.933 137.28 117.867C132.906 126.613 134.506 137.92 141.333 144.747L150.826 152.533L154.666 156.48ZM139.84 186.027C142.613 183.467 144.32 179.2 144 175.36V173.333C142.72 166.933 137.066 164.907 133.333 160L130.773 155.2C129.386 158.4 129.28 161.387 129.813 164.907C130.453 168.533 131.946 171.627 131.093 175.36C130.133 179.52 126.933 183.68 121.28 185.067C124.48 188.16 129.6 190.613 134.826 188.907L139.84 186.027Z" fill="#8C442B"/>
<path d="M154.666 156.48H154.346L157.973 162.347L158.613 163.627C163.093 174.4 159.999 186.667 151.573 194.56C143.999 201.6 133.333 203.413 123.519 202.133C114.239 200.96 105.599 195.093 100.799 186.987C99.1993 184.533 98.026 181.653 97.386 178.88L95.9993 171.84C95.5727 161.6 99.626 150.827 107.306 144.427C103.786 152.107 104.639 161.707 109.866 168.427L110.506 169.28C111.359 170.027 112.533 170.347 113.493 169.813C114.453 169.493 115.199 168.533 115.199 167.467L114.773 165.973C109.119 151.147 113.919 133.867 125.759 124.053C129.066 121.387 133.333 118.933 137.279 117.867C132.906 126.613 134.506 137.92 141.333 144.747L150.826 152.533L154.666 156.48ZM139.839 186.027C142.613 183.467 144.319 179.2 143.999 175.36V173.333C142.719 166.933 137.066 164.907 133.333 160L130.773 155.2C129.386 158.4 129.279 161.387 129.813 164.907C130.453 168.533 131.946 171.627 131.093 175.36C130.133 179.52 126.933 183.68 121.279 185.067C124.479 188.16 129.599 190.613 134.826 188.907L139.839 186.027Z" fill="#FE9305"/>
</svg>
